<svg width="520" height="340" viewBox="0 0 520 340" fill="none" xmlns="http://www.w3.org/2000/svg" role="img" aria-label="SurveyFlow product card">
  <rect x="18" y="18" width="484" height="304" rx="22" fill="white" stroke="#E2E8F0" stroke-width="2"/>
  <text x="48" y="58" fill="#0B1220" font-family="Inter, Arial" font-size="17" font-weight="800">Customer Satisfaction Q2 2024</text>
  <rect x="330" y="40" width="74" height="24" rx="12" fill="#DCFCE7"/>
  <text x="348" y="57" fill="#15803D" font-family="Inter, Arial" font-size="10" font-weight="700">Published</text>
  <rect x="48" y="88" width="122" height="70" rx="12" fill="#F8FAFC" stroke="#E2E8F0"/>
  <rect x="190" y="88" width="122" height="70" rx="12" fill="#F8FAFC" stroke="#E2E8F0"/>
  <rect x="332" y="88" width="122" height="70" rx="12" fill="#F8FAFC" stroke="#E2E8F0"/>
  <text x="64" y="116" fill="#64748B" font-family="Inter, Arial" font-size="11" font-weight="600">Responses</text>
  <text x="64" y="144" fill="#0B1220" font-family="Inter, Arial" font-size="22" font-weight="800">1,248</text>
  <text x="206" y="116" fill="#64748B" font-family="Inter, Arial" font-size="11" font-weight="600">Completion</text>
  <text x="206" y="144" fill="#0B1220" font-family="Inter, Arial" font-size="22" font-weight="800">62%</text>
  <text x="348" y="116" fill="#64748B" font-family="Inter, Arial" font-size="11" font-weight="600">Avg. Score</text>
  <text x="348" y="144" fill="#0B1220" font-family="Inter, Arial" font-size="22" font-weight="800">4.2 / 5</text>
  <rect x="48" y="184" width="188" height="98" rx="14" fill="#FFFFFF" stroke="#E2E8F0"/>
  <circle cx="100" cy="233" r="30" fill="#EAF5FF" stroke="#1E90FF" stroke-width="10"/>
  <path d="M100 203A30 30 0 0 1 128 224" stroke="#FF5A3C" stroke-width="10" stroke-linecap="round"/>
  <rect x="154" y="207" width="54" height="7" rx="3.5" fill="#1E90FF"/>
  <rect x="154" y="228" width="42" height="7" rx="3.5" fill="#FF5A3C"/>
  <rect x="154" y="249" width="64" height="7" rx="3.5" fill="#CBD5E1"/>
  <rect x="262" y="184" width="192" height="98" rx="14" fill="#FFFFFF" stroke="#E2E8F0"/>
  <polyline points="286,254 314,242 342,248 370,218 400,228 430,204" fill="none" stroke="#1E90FF" stroke-width="4" stroke-linecap="round" stroke-linejoin="round"/>
</svg>
