<svg width="720" height="460" viewBox="0 0 720 460" fill="none" xmlns="http://www.w3.org/2000/svg" role="img" aria-label="Survey dashboard preview">
  <rect x="24" y="24" width="672" height="412" rx="24" fill="white" stroke="#E2E8F0" stroke-width="2"/>
  <rect x="24" y="24" width="118" height="412" rx="24" fill="#F8FAFC"/>
  <rect x="54" y="62" width="52" height="10" rx="5" fill="#0B1220" opacity="0.9"/>
  <rect x="54" y="102" width="64" height="28" rx="8" fill="#EAF5FF"/>
  <rect x="54" y="146" width="48" height="8" rx="4" fill="#94A3B8"/>
  <rect x="54" y="178" width="56" height="8" rx="4" fill="#CBD5E1"/>
  <rect x="54" y="210" width="44" height="8" rx="4" fill="#CBD5E1"/>
  <rect x="54" y="242" width="62" height="8" rx="4" fill="#CBD5E1"/>
  <text x="178" y="74" fill="#0B1220" font-family="Inter, Arial" font-size="22" font-weight="800">Customer Satisfaction Q2 2024</text>
  <rect x="478" y="52" width="82" height="28" rx="14" fill="#DCFCE7"/>
  <text x="496" y="71" fill="#15803D" font-family="Inter, Arial" font-size="12" font-weight="700">Published</text>
  <rect x="178" y="112" width="132" height="86" rx="14" fill="#F8FAFC" stroke="#E2E8F0"/>
  <rect x="326" y="112" width="132" height="86" rx="14" fill="#F8FAFC" stroke="#E2E8F0"/>
  <rect x="474" y="112" width="132" height="86" rx="14" fill="#F8FAFC" stroke="#E2E8F0"/>
  <text x="196" y="144" fill="#64748B" font-family="Inter, Arial" font-size="12" font-weight="600">Responses</text>
  <text x="196" y="176" fill="#0B1220" font-family="Inter, Arial" font-size="28" font-weight="800">1,248</text>
  <text x="344" y="144" fill="#64748B" font-family="Inter, Arial" font-size="12" font-weight="600">Completion</text>
  <text x="344" y="176" fill="#0B1220" font-family="Inter, Arial" font-size="28" font-weight="800">62%</text>
  <text x="492" y="144" fill="#64748B" font-family="Inter, Arial" font-size="12" font-weight="600">Avg. Score</text>
  <text x="492" y="176" fill="#0B1220" font-family="Inter, Arial" font-size="28" font-weight="800">4.2</text>
  <rect x="178" y="222" width="210" height="168" rx="16" fill="#FFFFFF" stroke="#E2E8F0"/>
  <circle cx="283" cy="306" r="56" fill="#EAF5FF" stroke="#1E90FF" stroke-width="18"/>
  <path d="M283 250A56 56 0 0 1 336 288" stroke="#FF5A3C" stroke-width="18" stroke-linecap="round"/>
  <text x="263" y="315" fill="#0B1220" font-family="Inter, Arial" font-size="24" font-weight="800">4.2</text>
  <rect x="414" y="222" width="214" height="168" rx="16" fill="#FFFFFF" stroke="#E2E8F0"/>
  <polyline points="438,350 470,330 502,338 534,295 566,307 602,258" fill="none" stroke="#1E90FF" stroke-width="5" stroke-linecap="round" stroke-linejoin="round"/>
  <rect x="438" y="350" width="10" height="22" rx="4" fill="#FF5A3C" opacity="0.8"/>
  <rect x="470" y="330" width="10" height="42" rx="4" fill="#FF5A3C" opacity="0.8"/>
  <rect x="502" y="338" width="10" height="34" rx="4" fill="#FF5A3C" opacity="0.8"/>
  <rect x="534" y="295" width="10" height="77" rx="4" fill="#FF5A3C" opacity="0.8"/>
  <rect x="566" y="307" width="10" height="65" rx="4" fill="#FF5A3C" opacity="0.8"/>
  <rect x="602" y="258" width="10" height="114" rx="4" fill="#FF5A3C" opacity="0.8"/>
</svg>
